# Blender v2.92.0 OBJ File: ''
# www.blender.org
mtllib untitled.mtl
o Cylinder
v -0.000000 -0.344745 -0.746022
v -0.000000 0.348856 -0.756455
v 0.145542 -0.344745 -0.731687
v 0.147577 0.348856 -0.741920
v 0.285490 -0.344745 -0.689235
v 0.289483 0.348856 -0.698873
v 0.414468 -0.344745 -0.620295
v 0.420264 0.348856 -0.628969
v 0.527517 -0.344745 -0.527517
v 0.534895 0.348856 -0.534895
v 0.620295 -0.344745 -0.414468
v 0.628969 0.348856 -0.420264
v 0.689235 -0.344745 -0.285490
v 0.698873 0.348856 -0.289483
v 0.731687 -0.344745 -0.145542
v 0.741920 0.348856 -0.147577
v 0.746022 -0.344745 -0.000000
v 0.756455 0.348856 -0.000000
v 0.731688 -0.344745 0.145542
v 0.741920 0.348856 0.147577
v 0.689235 -0.344745 0.285490
v 0.698874 0.348856 0.289483
v 0.620295 -0.344745 0.414468
v 0.628970 0.348856 0.420264
v 0.527517 -0.344745 0.527517
v 0.534895 0.348856 0.534895
v 0.414468 -0.344745 0.620295
v 0.420264 0.348856 0.628970
v 0.285490 -0.344745 0.689235
v 0.289483 0.348856 0.698874
v 0.145542 -0.344745 0.731688
v 0.147577 0.348856 0.741920
v -0.000000 -0.344745 0.746022
v -0.000000 0.348856 0.756455
v -0.145542 -0.344745 0.731687
v -0.147577 0.348856 0.741920
v -0.285491 -0.344745 0.689234
v -0.289483 0.348856 0.698873
v -0.414468 -0.344745 0.620294
v -0.420264 0.348856 0.628969
v -0.527518 -0.344745 0.527517
v -0.534895 0.348856 0.534894
v -0.620295 -0.344745 0.414467
v -0.628970 0.348856 0.420264
v -0.689235 -0.344745 0.285490
v -0.698874 0.348856 0.289482
v -0.731688 -0.344745 0.145541
v -0.741920 0.348856 0.147576
v -0.746022 -0.344745 -0.000001
v -0.756455 0.348856 -0.000001
v -0.731687 -0.344745 -0.145542
v -0.741920 0.348856 -0.147578
v -0.689234 -0.344745 -0.285491
v -0.698873 0.348856 -0.289484
v -0.620294 -0.344745 -0.414468
v -0.628969 0.348856 -0.420265
v -0.527517 -0.344745 -0.527518
v -0.534894 0.348856 -0.534895
v -0.414467 -0.344745 -0.620295
v -0.420263 0.348856 -0.628970
v -0.285489 -0.344745 -0.689235
v -0.289482 0.348856 -0.698874
v -0.145540 -0.344745 -0.731688
v -0.147576 0.348856 -0.741920
v 0.195090 0.271704 -0.980785
v 0.000000 0.271704 -1.000000
v 0.382683 0.271704 -0.923880
v 0.555570 0.271704 -0.831470
v 0.707107 0.271704 -0.707107
v 0.831470 0.271704 -0.555570
v 0.923880 0.271704 -0.382683
v 0.980785 0.271704 -0.195090
v 1.000000 0.271704 -0.000000
v 0.980785 0.271704 0.195090
v 0.923880 0.271704 0.382683
v 0.831470 0.271704 0.555570
v 0.707107 0.271704 0.707107
v 0.555570 0.271704 0.831470
v 0.382683 0.271704 0.923880
v 0.195090 0.271704 0.980785
v -0.000000 0.271704 1.000000
v -0.195091 0.271704 0.980785
v -0.382684 0.271704 0.923879
v -0.555571 0.271704 0.831469
v -0.707107 0.271704 0.707106
v -0.831470 0.271704 0.555570
v -0.923880 0.271704 0.382683
v -0.980785 0.271704 0.195089
v -1.000000 0.271704 -0.000001
v -0.980785 0.271704 -0.195091
v -0.923879 0.271704 -0.382684
v -0.831469 0.271704 -0.555571
v -0.707106 0.271704 -0.707108
v -0.555569 0.271704 -0.831470
v -0.382682 0.271704 -0.923880
v -0.195089 0.271704 -0.980786
v 0.177550 0.314095 -0.892605
v -0.000000 0.314095 -0.910092
v 0.348277 0.314095 -0.840816
v 0.505620 0.314095 -0.756714
v 0.643532 0.314095 -0.643532
v 0.756714 0.314095 -0.505620
v 0.840816 0.314095 -0.348277
v 0.892605 0.314095 -0.177550
v 0.910092 0.314095 -0.000000
v 0.892605 0.314095 0.177550
v 0.840816 0.314095 0.348277
v 0.756714 0.314095 0.505620
v 0.643532 0.314095 0.643532
v 0.505620 0.314095 0.756714
v 0.348277 0.314095 0.840816
v 0.177550 0.314095 0.892605
v -0.000000 0.314095 0.910092
v -0.177551 0.314095 0.892605
v -0.348278 0.314095 0.840815
v -0.505621 0.314095 0.756714
v -0.643533 0.314095 0.643532
v -0.756714 0.314095 0.505620
v -0.840816 0.314095 0.348277
v -0.892605 0.314095 0.177549
v -0.910092 0.314095 -0.000001
v -0.892605 0.314095 -0.177551
v -0.840815 0.314095 -0.348278
v -0.756714 0.314095 -0.505621
v -0.643532 0.314095 -0.643533
v -0.505619 0.314095 -0.756715
v -0.348276 0.314095 -0.840816
v -0.177549 0.314095 -0.892605
v 0.000000 -0.271704 -1.000000
v 0.195090 -0.271704 -0.980785
v 0.382683 -0.271704 -0.923880
v 0.555570 -0.271704 -0.831470
v 0.707107 -0.271704 -0.707107
v 0.831470 -0.271704 -0.555570
v 0.923880 -0.271704 -0.382683
v 0.980785 -0.271704 -0.195090
v 1.000000 -0.271704 -0.000000
v 0.980785 -0.271704 0.195090
v 0.923880 -0.271704 0.382683
v 0.831470 -0.271704 0.555570
v 0.707107 -0.271704 0.707107
v 0.555570 -0.271704 0.831470
v 0.382683 -0.271704 0.923880
v 0.195090 -0.271704 0.980785
v -0.000000 -0.271704 1.000000
v -0.195091 -0.271704 0.980785
v -0.382684 -0.271704 0.923879
v -0.555571 -0.271704 0.831469
v -0.707107 -0.271704 0.707106
v -0.831470 -0.271704 0.555570
v -0.923880 -0.271704 0.382683
v -0.980785 -0.271704 0.195089
v -1.000000 -0.271704 -0.000001
v -0.980785 -0.271704 -0.195091
v -0.923879 -0.271704 -0.382684
v -0.831469 -0.271704 -0.555571
v -0.707106 -0.271704 -0.707108
v -0.555569 -0.271704 -0.831470
v -0.382682 -0.271704 -0.923880
v -0.195089 -0.271704 -0.980786
v -0.000000 -0.316668 -0.884928
v 0.172641 -0.316668 -0.867925
v 0.338647 -0.316668 -0.817567
v 0.491640 -0.316668 -0.735791
v 0.625739 -0.316668 -0.625739
v 0.735791 -0.316668 -0.491640
v 0.817567 -0.316668 -0.338647
v 0.867925 -0.316668 -0.172641
v 0.884928 -0.316668 -0.000000
v 0.867925 -0.316668 0.172641
v 0.817567 -0.316668 0.338647
v 0.735791 -0.316668 0.491640
v 0.625739 -0.316668 0.625739
v 0.491640 -0.316668 0.735791
v 0.338647 -0.316668 0.817567
v 0.172641 -0.316668 0.867925
v -0.000000 -0.316668 0.884928
v -0.172641 -0.316668 0.867925
v -0.338648 -0.316668 0.817567
v -0.491640 -0.316668 0.735791
v -0.625739 -0.316668 0.625738
v -0.735791 -0.316668 0.491639
v -0.817567 -0.316668 0.338647
v -0.867925 -0.316668 0.172640
v -0.884928 -0.316668 -0.000001
v -0.867924 -0.316668 -0.172642
v -0.817567 -0.316668 -0.338648
v -0.735790 -0.316668 -0.491641
v -0.625738 -0.316668 -0.625740
v -0.491639 -0.316668 -0.735792
v -0.338646 -0.316668 -0.817568
v -0.172640 -0.316668 -0.867925
vt 1.000000 0.500000
vt 1.000000 1.000000
vt 0.968750 1.000000
vt 0.968750 0.500000
vt 0.937500 1.000000
vt 0.937500 0.500000
vt 0.906250 1.000000
vt 0.906250 0.500000
vt 0.875000 1.000000
vt 0.875000 0.500000
vt 0.843750 1.000000
vt 0.843750 0.500000
vt 0.812500 1.000000
vt 0.812500 0.500000
vt 0.781250 1.000000
vt 0.781250 0.500000
vt 0.750000 1.000000
vt 0.750000 0.500000
vt 0.718750 1.000000
vt 0.718750 0.500000
vt 0.687500 1.000000
vt 0.687500 0.500000
vt 0.656250 1.000000
vt 0.656250 0.500000
vt 0.625000 1.000000
vt 0.625000 0.500000
vt 0.593750 1.000000
vt 0.593750 0.500000
vt 0.562500 1.000000
vt 0.562500 0.500000
vt 0.531250 1.000000
vt 0.531250 0.500000
vt 0.500000 1.000000
vt 0.500000 0.500000
vt 0.468750 1.000000
vt 0.468750 0.500000
vt 0.437500 1.000000
vt 0.437500 0.500000
vt 0.406250 1.000000
vt 0.406250 0.500000
vt 0.375000 1.000000
vt 0.375000 0.500000
vt 0.343750 1.000000
vt 0.343750 0.500000
vt 0.312500 1.000000
vt 0.312500 0.500000
vt 0.281250 1.000000
vt 0.281250 0.500000
vt 0.250000 1.000000
vt 0.250000 0.500000
vt 0.218750 1.000000
vt 0.218750 0.500000
vt 0.187500 1.000000
vt 0.187500 0.500000
vt 0.156250 1.000000
vt 0.156250 0.500000
vt 0.125000 1.000000
vt 0.125000 0.500000
vt 0.093750 1.000000
vt 0.093750 0.500000
vt 0.062500 1.000000
vt 0.062500 0.500000
vt 0.285419 0.428061
vt 0.250000 0.431549
vt 0.214582 0.428061
vt 0.180524 0.417730
vt 0.149137 0.400953
vt 0.121626 0.378375
vt 0.099047 0.350864
vt 0.082270 0.319476
vt 0.071939 0.285419
vt 0.068451 0.250000
vt 0.071939 0.214582
vt 0.082270 0.180524
vt 0.099047 0.149137
vt 0.121625 0.121625
vt 0.149137 0.099047
vt 0.180524 0.082270
vt 0.214581 0.071939
vt 0.250000 0.068451
vt 0.285419 0.071939
vt 0.319476 0.082270
vt 0.350863 0.099047
vt 0.378375 0.121625
vt 0.400953 0.149137
vt 0.417730 0.180524
vt 0.428061 0.214582
vt 0.431549 0.250000
vt 0.428061 0.285418
vt 0.417730 0.319476
vt 0.400953 0.350863
vt 0.378375 0.378375
vt 0.350863 0.400953
vt 0.319476 0.417730
vt 0.031250 1.000000
vt 0.031250 0.500000
vt 0.000000 1.000000
vt 0.000000 0.500000
vt 0.750000 0.429045
vt 0.784930 0.425605
vt 0.818518 0.415416
vt 0.849472 0.398871
vt 0.876604 0.376604
vt 0.898871 0.349472
vt 0.915416 0.318518
vt 0.925605 0.284930
vt 0.929045 0.250000
vt 0.925605 0.215070
vt 0.915416 0.181482
vt 0.898871 0.150528
vt 0.876604 0.123396
vt 0.849472 0.101129
vt 0.818518 0.084584
vt 0.784930 0.074395
vt 0.750000 0.070955
vt 0.715070 0.074395
vt 0.681482 0.084584
vt 0.650528 0.101129
vt 0.623396 0.123396
vt 0.601129 0.150528
vt 0.584584 0.181482
vt 0.574395 0.215070
vt 0.570955 0.250000
vt 0.574395 0.284930
vt 0.584584 0.318518
vt 0.601129 0.349472
vt 0.623396 0.376604
vt 0.650528 0.398871
vt 0.681482 0.415416
vt 0.715070 0.425605
vt 0.250000 0.468422
vt 0.292612 0.464225
vt 0.296822 0.485388
vt 0.250000 0.490000
vt 0.333587 0.451796
vt 0.341844 0.471731
vt 0.371349 0.431611
vt 0.383337 0.449553
vt 0.404448 0.404448
vt 0.419706 0.419706
vt 0.431611 0.371349
vt 0.449553 0.383337
vt 0.451796 0.333587
vt 0.471731 0.341844
vt 0.464225 0.292612
vt 0.485388 0.296822
vt 0.468422 0.250000
vt 0.490000 0.250000
vt 0.464225 0.207388
vt 0.485388 0.203178
vt 0.451796 0.166414
vt 0.471731 0.158156
vt 0.431611 0.128651
vt 0.449553 0.116663
vt 0.404448 0.095552
vt 0.419706 0.080294
vt 0.371349 0.068389
vt 0.383337 0.050447
vt 0.333587 0.048204
vt 0.341844 0.028269
vt 0.292612 0.035775
vt 0.296822 0.014612
vt 0.250000 0.031578
vt 0.250000 0.010000
vt 0.207388 0.035775
vt 0.203178 0.014612
vt 0.166413 0.048204
vt 0.158156 0.028269
vt 0.128651 0.068389
vt 0.116663 0.050447
vt 0.095552 0.095552
vt 0.080294 0.080294
vt 0.068389 0.128651
vt 0.050447 0.116663
vt 0.048204 0.166414
vt 0.028269 0.158156
vt 0.035775 0.207388
vt 0.014611 0.203179
vt 0.031578 0.250000
vt 0.010000 0.250000
vt 0.035775 0.292612
vt 0.014612 0.296822
vt 0.048204 0.333587
vt 0.028269 0.341844
vt 0.068389 0.371349
vt 0.050447 0.383337
vt 0.095552 0.404448
vt 0.080295 0.419706
vt 0.128651 0.431612
vt 0.116663 0.449553
vt 0.166414 0.451796
vt 0.158156 0.471731
vt 0.207388 0.464225
vt 0.203179 0.485389
vt 0.791434 0.458302
vt 0.750000 0.462383
vt 0.750000 0.490000
vt 0.796822 0.485388
vt 0.831275 0.446216
vt 0.841844 0.471731
vt 0.867994 0.426590
vt 0.883337 0.449553
vt 0.900177 0.400177
vt 0.919706 0.419706
vt 0.926590 0.367993
vt 0.949553 0.383337
vt 0.946216 0.331275
vt 0.971731 0.341844
vt 0.958302 0.291434
vt 0.985388 0.296822
vt 0.962383 0.250000
vt 0.990000 0.250000
vt 0.958302 0.208566
vt 0.985388 0.203178
vt 0.946216 0.168725
vt 0.971731 0.158156
vt 0.926590 0.132006
vt 0.949553 0.116663
vt 0.900177 0.099823
vt 0.919706 0.080294
vt 0.867994 0.073410
vt 0.883337 0.050447
vt 0.831275 0.053784
vt 0.841844 0.028269
vt 0.791434 0.041698
vt 0.796822 0.014612
vt 0.750000 0.037617
vt 0.750000 0.010000
vt 0.708566 0.041698
vt 0.703178 0.014612
vt 0.668724 0.053784
vt 0.658156 0.028269
vt 0.632006 0.073410
vt 0.616663 0.050447
vt 0.599823 0.099823
vt 0.580294 0.080294
vt 0.573410 0.132007
vt 0.550447 0.116663
vt 0.553784 0.168725
vt 0.528269 0.158156
vt 0.541698 0.208566
vt 0.514611 0.203179
vt 0.537617 0.250000
vt 0.510000 0.250000
vt 0.541698 0.291434
vt 0.514612 0.296822
vt 0.553784 0.331276
vt 0.528269 0.341844
vt 0.573410 0.367994
vt 0.550447 0.383337
vt 0.599823 0.400177
vt 0.580295 0.419706
vt 0.632007 0.426590
vt 0.616663 0.449553
vt 0.668725 0.446216
vt 0.658156 0.471731
vt 0.708567 0.458302
vt 0.703179 0.485389
vn 0.0980 0.0000 -0.9952
vn 0.2903 0.0000 -0.9569
vn 0.4714 0.0000 -0.8819
vn 0.6344 0.0000 -0.7730
vn 0.7730 0.0000 -0.6344
vn 0.8819 0.0000 -0.4714
vn 0.9569 0.0000 -0.2903
vn 0.9952 0.0000 -0.0980
vn 0.9952 0.0000 0.0980
vn 0.9569 0.0000 0.2903
vn 0.8819 0.0000 0.4714
vn 0.7730 0.0000 0.6344
vn 0.6344 0.0000 0.7730
vn 0.4714 0.0000 0.8819
vn 0.2903 0.0000 0.9569
vn 0.0980 0.0000 0.9952
vn -0.0980 0.0000 0.9952
vn -0.2903 0.0000 0.9569
vn -0.4714 0.0000 0.8819
vn -0.6344 0.0000 0.7730
vn -0.7730 0.0000 0.6344
vn -0.8819 0.0000 0.4714
vn -0.9569 0.0000 0.2903
vn -0.9952 0.0000 0.0980
vn -0.9952 0.0000 -0.0980
vn -0.9569 0.0000 -0.2903
vn -0.8819 0.0000 -0.4714
vn -0.7730 0.0000 -0.6344
vn -0.6344 0.0000 -0.7730
vn -0.4714 0.0000 -0.8819
vn 0.0000 1.0000 -0.0000
vn -0.2903 0.0000 -0.9569
vn -0.0980 0.0000 -0.9952
vn 0.0000 -1.0000 -0.0000
vn 0.0420 0.9037 -0.4261
vn 0.1243 0.9037 -0.4097
vn 0.2018 0.9037 -0.3776
vn 0.2716 0.9037 -0.3310
vn 0.3310 0.9037 -0.2716
vn 0.3776 0.9037 -0.2018
vn 0.4097 0.9037 -0.1243
vn 0.4261 0.9037 -0.0420
vn 0.4261 0.9037 0.0420
vn 0.4097 0.9037 0.1243
vn 0.3776 0.9037 0.2018
vn 0.3310 0.9037 0.2716
vn 0.2716 0.9037 0.3310
vn 0.2018 0.9037 0.3776
vn 0.1243 0.9037 0.4097
vn 0.0420 0.9037 0.4261
vn -0.0420 0.9037 0.4261
vn -0.1243 0.9037 0.4097
vn -0.2018 0.9037 0.3776
vn -0.2716 0.9037 0.3310
vn -0.3310 0.9037 0.2716
vn -0.3776 0.9037 0.2018
vn -0.4097 0.9037 0.1243
vn -0.4261 0.9037 0.0420
vn -0.4261 0.9037 -0.0420
vn -0.4097 0.9037 -0.1243
vn -0.3776 0.9037 -0.2018
vn -0.3310 0.9037 -0.2716
vn -0.2716 0.9037 -0.3310
vn -0.2018 0.9037 -0.3776
vn -0.1243 0.9037 -0.4097
vn -0.0420 0.9037 -0.4261
vn 0.0217 0.9751 -0.2206
vn 0.0644 0.9751 -0.2121
vn 0.1045 0.9751 -0.1955
vn 0.1406 0.9751 -0.1714
vn 0.1714 0.9751 -0.1406
vn 0.1955 0.9751 -0.1045
vn 0.2121 0.9751 -0.0644
vn 0.2206 0.9751 -0.0217
vn 0.2206 0.9751 0.0217
vn 0.2121 0.9751 0.0644
vn 0.1955 0.9751 0.1045
vn 0.1714 0.9751 0.1406
vn 0.1406 0.9751 0.1714
vn 0.1045 0.9751 0.1955
vn 0.0644 0.9751 0.2121
vn 0.0217 0.9751 0.2206
vn -0.0217 0.9751 0.2206
vn -0.0644 0.9751 0.2121
vn -0.1045 0.9751 0.1955
vn -0.1406 0.9751 0.1714
vn -0.1714 0.9751 0.1406
vn -0.1955 0.9751 0.1045
vn -0.2121 0.9751 0.0644
vn -0.2206 0.9751 0.0217
vn -0.2206 0.9751 -0.0217
vn -0.2121 0.9751 -0.0644
vn -0.1955 0.9751 -0.1045
vn -0.1714 0.9751 -0.1406
vn -0.1406 0.9751 -0.1714
vn -0.1045 0.9751 -0.1955
vn -0.0644 0.9751 -0.2121
vn -0.0217 0.9751 -0.2206
vn 0.0358 -0.9308 -0.3637
vn 0.1061 -0.9308 -0.3497
vn 0.1723 -0.9308 -0.3223
vn 0.2319 -0.9308 -0.2825
vn 0.2825 -0.9308 -0.2319
vn 0.3223 -0.9308 -0.1723
vn 0.3497 -0.9308 -0.1061
vn 0.3637 -0.9308 -0.0358
vn 0.3637 -0.9308 0.0358
vn 0.3497 -0.9308 0.1061
vn 0.3223 -0.9308 0.1723
vn 0.2825 -0.9308 0.2319
vn 0.2319 -0.9308 0.2825
vn 0.1723 -0.9308 0.3223
vn 0.1061 -0.9308 0.3497
vn 0.0358 -0.9308 0.3637
vn -0.0358 -0.9308 0.3637
vn -0.1061 -0.9308 0.3497
vn -0.1723 -0.9308 0.3223
vn -0.2319 -0.9308 0.2825
vn -0.2825 -0.9308 0.2319
vn -0.3223 -0.9308 0.1723
vn -0.3497 -0.9308 0.1061
vn -0.3637 -0.9308 0.0358
vn -0.3637 -0.9308 -0.0358
vn -0.3497 -0.9308 -0.1061
vn -0.3223 -0.9308 -0.1723
vn -0.2825 -0.9308 -0.2319
vn -0.2319 -0.9308 -0.2825
vn -0.1723 -0.9308 -0.3223
vn -0.1061 -0.9308 -0.3497
vn -0.0358 -0.9308 -0.3637
vn 0.0195 -0.9800 -0.1981
vn 0.0578 -0.9800 -0.1905
vn 0.0938 -0.9800 -0.1755
vn 0.1263 -0.9800 -0.1539
vn 0.1539 -0.9800 -0.1263
vn 0.1755 -0.9800 -0.0938
vn 0.1905 -0.9800 -0.0578
vn 0.1981 -0.9800 -0.0195
vn 0.1981 -0.9800 0.0195
vn 0.1905 -0.9800 0.0578
vn 0.1755 -0.9800 0.0938
vn 0.1539 -0.9800 0.1263
vn 0.1263 -0.9800 0.1539
vn 0.0938 -0.9800 0.1755
vn 0.0578 -0.9800 0.1905
vn 0.0195 -0.9800 0.1981
vn -0.0195 -0.9800 0.1981
vn -0.0578 -0.9800 0.1905
vn -0.0938 -0.9800 0.1755
vn -0.1263 -0.9800 0.1539
vn -0.1539 -0.9800 0.1263
vn -0.1755 -0.9800 0.0938
vn -0.1905 -0.9800 0.0578
vn -0.1981 -0.9800 0.0195
vn -0.1981 -0.9800 -0.0195
vn -0.1905 -0.9800 -0.0578
vn -0.1755 -0.9800 -0.0938
vn -0.1539 -0.9800 -0.1263
vn -0.1263 -0.9800 -0.1539
vn -0.0938 -0.9800 -0.1755
vn -0.0578 -0.9800 -0.1905
vn -0.0195 -0.9800 -0.1981
usemtl None
s off
f 129/1/1 66/2/1 65/3/1 130/4/1
f 130/4/2 65/3/2 67/5/2 131/6/2
f 131/6/3 67/5/3 68/7/3 132/8/3
f 132/8/4 68/7/4 69/9/4 133/10/4
f 133/10/5 69/9/5 70/11/5 134/12/5
f 134/12/6 70/11/6 71/13/6 135/14/6
f 135/14/7 71/13/7 72/15/7 136/16/7
f 136/16/8 72/15/8 73/17/8 137/18/8
f 137/18/9 73/17/9 74/19/9 138/20/9
f 138/20/10 74/19/10 75/21/10 139/22/10
f 139/22/11 75/21/11 76/23/11 140/24/11
f 140/24/12 76/23/12 77/25/12 141/26/12
f 141/26/13 77/25/13 78/27/13 142/28/13
f 142/28/14 78/27/14 79/29/14 143/30/14
f 143/30/15 79/29/15 80/31/15 144/32/15
f 144/32/16 80/31/16 81/33/16 145/34/16
f 145/34/17 81/33/17 82/35/17 146/36/17
f 146/36/18 82/35/18 83/37/18 147/38/18
f 147/38/19 83/37/19 84/39/19 148/40/19
f 148/40/20 84/39/20 85/41/20 149/42/20
f 149/42/21 85/41/21 86/43/21 150/44/21
f 150/44/22 86/43/22 87/45/22 151/46/22
f 151/46/23 87/45/23 88/47/23 152/48/23
f 152/48/24 88/47/24 89/49/24 153/50/24
f 153/50/25 89/49/25 90/51/25 154/52/25
f 154/52/26 90/51/26 91/53/26 155/54/26
f 155/54/27 91/53/27 92/55/27 156/56/27
f 156/56/28 92/55/28 93/57/28 157/58/28
f 157/58/29 93/57/29 94/59/29 158/60/29
f 158/60/30 94/59/30 95/61/30 159/62/30
f 4/63/31 2/64/31 64/65/31 62/66/31 60/67/31 58/68/31 56/69/31 54/70/31 52/71/31 50/72/31 48/73/31 46/74/31 44/75/31 42/76/31 40/77/31 38/78/31 36/79/31 34/80/31 32/81/31 30/82/31 28/83/31 26/84/31 24/85/31 22/86/31 20/87/31 18/88/31 16/89/31 14/90/31 12/91/31 10/92/31 8/93/31 6/94/31
f 159/62/32 95/61/32 96/95/32 160/96/32
f 160/96/33 96/95/33 66/97/33 129/98/33
f 1/99/34 3/100/34 5/101/34 7/102/34 9/103/34 11/104/34 13/105/34 15/106/34 17/107/34 19/108/34 21/109/34 23/110/34 25/111/34 27/112/34 29/113/34 31/114/34 33/115/34 35/116/34 37/117/34 39/118/34 41/119/34 43/120/34 45/121/34 47/122/34 49/123/34 51/124/34 53/125/34 55/126/34 57/127/34 59/128/34 61/129/34 63/130/34
f 98/131/35 97/132/35 65/133/35 66/134/35
f 97/132/36 99/135/36 67/136/36 65/133/36
f 99/135/37 100/137/37 68/138/37 67/136/37
f 100/137/38 101/139/38 69/140/38 68/138/38
f 101/139/39 102/141/39 70/142/39 69/140/39
f 102/141/40 103/143/40 71/144/40 70/142/40
f 103/143/41 104/145/41 72/146/41 71/144/41
f 104/145/42 105/147/42 73/148/42 72/146/42
f 105/147/43 106/149/43 74/150/43 73/148/43
f 106/149/44 107/151/44 75/152/44 74/150/44
f 107/151/45 108/153/45 76/154/45 75/152/45
f 108/153/46 109/155/46 77/156/46 76/154/46
f 109/155/47 110/157/47 78/158/47 77/156/47
f 110/157/48 111/159/48 79/160/48 78/158/48
f 111/159/49 112/161/49 80/162/49 79/160/49
f 112/161/50 113/163/50 81/164/50 80/162/50
f 113/163/51 114/165/51 82/166/51 81/164/51
f 114/165/52 115/167/52 83/168/52 82/166/52
f 115/167/53 116/169/53 84/170/53 83/168/53
f 116/169/54 117/171/54 85/172/54 84/170/54
f 117/171/55 118/173/55 86/174/55 85/172/55
f 118/173/56 119/175/56 87/176/56 86/174/56
f 119/175/57 120/177/57 88/178/57 87/176/57
f 120/177/58 121/179/58 89/180/58 88/178/58
f 121/179/59 122/181/59 90/182/59 89/180/59
f 122/181/60 123/183/60 91/184/60 90/182/60
f 123/183/61 124/185/61 92/186/61 91/184/61
f 124/185/62 125/187/62 93/188/62 92/186/62
f 125/187/63 126/189/63 94/190/63 93/188/63
f 126/189/64 127/191/64 95/192/64 94/190/64
f 127/191/65 128/193/65 96/194/65 95/192/65
f 128/193/66 98/131/66 66/134/66 96/194/66
f 2/64/67 4/63/67 97/132/67 98/131/67
f 4/63/68 6/94/68 99/135/68 97/132/68
f 6/94/69 8/93/69 100/137/69 99/135/69
f 8/93/70 10/92/70 101/139/70 100/137/70
f 10/92/71 12/91/71 102/141/71 101/139/71
f 12/91/72 14/90/72 103/143/72 102/141/72
f 14/90/73 16/89/73 104/145/73 103/143/73
f 16/89/74 18/88/74 105/147/74 104/145/74
f 18/88/75 20/87/75 106/149/75 105/147/75
f 20/87/76 22/86/76 107/151/76 106/149/76
f 22/86/77 24/85/77 108/153/77 107/151/77
f 24/85/78 26/84/78 109/155/78 108/153/78
f 26/84/79 28/83/79 110/157/79 109/155/79
f 28/83/80 30/82/80 111/159/80 110/157/80
f 30/82/81 32/81/81 112/161/81 111/159/81
f 32/81/82 34/80/82 113/163/82 112/161/82
f 34/80/83 36/79/83 114/165/83 113/163/83
f 36/79/84 38/78/84 115/167/84 114/165/84
f 38/78/85 40/77/85 116/169/85 115/167/85
f 40/77/86 42/76/86 117/171/86 116/169/86
f 42/76/87 44/75/87 118/173/87 117/171/87
f 44/75/88 46/74/88 119/175/88 118/173/88
f 46/74/89 48/73/89 120/177/89 119/175/89
f 48/73/90 50/72/90 121/179/90 120/177/90
f 50/72/91 52/71/91 122/181/91 121/179/91
f 52/71/92 54/70/92 123/183/92 122/181/92
f 54/70/93 56/69/93 124/185/93 123/183/93
f 56/69/94 58/68/94 125/187/94 124/185/94
f 58/68/95 60/67/95 126/189/95 125/187/95
f 60/67/96 62/66/96 127/191/96 126/189/96
f 62/66/97 64/65/97 128/193/97 127/191/97
f 64/65/98 2/64/98 98/131/98 128/193/98
f 162/195/99 161/196/99 129/197/99 130/198/99
f 163/199/100 162/195/100 130/198/100 131/200/100
f 164/201/101 163/199/101 131/200/101 132/202/101
f 165/203/102 164/201/102 132/202/102 133/204/102
f 166/205/103 165/203/103 133/204/103 134/206/103
f 167/207/104 166/205/104 134/206/104 135/208/104
f 168/209/105 167/207/105 135/208/105 136/210/105
f 169/211/106 168/209/106 136/210/106 137/212/106
f 170/213/107 169/211/107 137/212/107 138/214/107
f 171/215/108 170/213/108 138/214/108 139/216/108
f 172/217/109 171/215/109 139/216/109 140/218/109
f 173/219/110 172/217/110 140/218/110 141/220/110
f 174/221/111 173/219/111 141/220/111 142/222/111
f 175/223/112 174/221/112 142/222/112 143/224/112
f 176/225/113 175/223/113 143/224/113 144/226/113
f 177/227/114 176/225/114 144/226/114 145/228/114
f 178/229/115 177/227/115 145/228/115 146/230/115
f 179/231/116 178/229/116 146/230/116 147/232/116
f 180/233/117 179/231/117 147/232/117 148/234/117
f 181/235/118 180/233/118 148/234/118 149/236/118
f 182/237/119 181/235/119 149/236/119 150/238/119
f 183/239/120 182/237/120 150/238/120 151/240/120
f 184/241/121 183/239/121 151/240/121 152/242/121
f 185/243/122 184/241/122 152/242/122 153/244/122
f 186/245/123 185/243/123 153/244/123 154/246/123
f 187/247/124 186/245/124 154/246/124 155/248/124
f 188/249/125 187/247/125 155/248/125 156/250/125
f 189/251/126 188/249/126 156/250/126 157/252/126
f 190/253/127 189/251/127 157/252/127 158/254/127
f 191/255/128 190/253/128 158/254/128 159/256/128
f 192/257/129 191/255/129 159/256/129 160/258/129
f 161/196/130 192/257/130 160/258/130 129/197/130
f 3/100/131 1/99/131 161/196/131 162/195/131
f 5/101/132 3/100/132 162/195/132 163/199/132
f 7/102/133 5/101/133 163/199/133 164/201/133
f 9/103/134 7/102/134 164/201/134 165/203/134
f 11/104/135 9/103/135 165/203/135 166/205/135
f 13/105/136 11/104/136 166/205/136 167/207/136
f 15/106/137 13/105/137 167/207/137 168/209/137
f 17/107/138 15/106/138 168/209/138 169/211/138
f 19/108/139 17/107/139 169/211/139 170/213/139
f 21/109/140 19/108/140 170/213/140 171/215/140
f 23/110/141 21/109/141 171/215/141 172/217/141
f 25/111/142 23/110/142 172/217/142 173/219/142
f 27/112/143 25/111/143 173/219/143 174/221/143
f 29/113/144 27/112/144 174/221/144 175/223/144
f 31/114/145 29/113/145 175/223/145 176/225/145
f 33/115/146 31/114/146 176/225/146 177/227/146
f 35/116/147 33/115/147 177/227/147 178/229/147
f 37/117/148 35/116/148 178/229/148 179/231/148
f 39/118/149 37/117/149 179/231/149 180/233/149
f 41/119/150 39/118/150 180/233/150 181/235/150
f 43/120/151 41/119/151 181/235/151 182/237/151
f 45/121/152 43/120/152 182/237/152 183/239/152
f 47/122/153 45/121/153 183/239/153 184/241/153
f 49/123/154 47/122/154 184/241/154 185/243/154
f 51/124/155 49/123/155 185/243/155 186/245/155
f 53/125/156 51/124/156 186/245/156 187/247/156
f 55/126/157 53/125/157 187/247/157 188/249/157
f 57/127/158 55/126/158 188/249/158 189/251/158
f 59/128/159 57/127/159 189/251/159 190/253/159
f 61/129/160 59/128/160 190/253/160 191/255/160
f 63/130/161 61/129/161 191/255/161 192/257/161
f 1/99/162 63/130/162 192/257/162 161/196/162
