# Blender v2.92.0 OBJ File: 'pepperoniblend.blend'
# www.blender.org
mtllib pepperoniblend.mtl
o Cylinder
v -0.081388 -0.095622 -1.069871
v -0.072708 -0.045856 -1.070307
v 0.056100 -0.105712 -1.088941
v 0.064402 -0.056963 -1.089365
v 0.194474 -0.107820 -1.085094
v 0.202389 -0.060195 -1.085534
v 0.331066 -0.102348 -1.058687
v 0.338738 -0.055973 -1.059178
v 0.464802 -0.090511 -1.010250
v 0.472298 -0.045471 -1.010852
v 0.593029 -0.073650 -0.940859
v 0.600274 -0.029988 -0.941645
v 0.711912 -0.053303 -0.851245
v 0.718767 -0.011040 -0.852190
v 0.817196 -0.031165 -0.742017
v 0.823564 0.009701 -0.743120
v 0.906676 -0.009083 -0.615165
v 0.912541 0.030414 -0.616405
v 0.983644 0.010296 -0.469619
v 0.989007 0.048484 -0.471000
v 1.045090 0.025727 -0.308825
v 1.050044 0.062695 -0.310344
v 1.085182 0.037021 -0.138152
v 1.089794 0.072913 -0.139802
v 1.098387 0.044554 0.036362
v 1.102720 0.079552 0.034600
v 1.081968 0.048873 0.208427
v 1.086123 0.083185 0.206603
v 1.034227 0.050978 0.371689
v 1.038260 0.084842 0.369817
v 0.960764 0.051123 0.524850
v 0.964791 0.084767 0.522961
v 0.864690 0.050374 0.664953
v 0.868801 0.084028 0.663105
v 0.746456 0.047096 0.784387
v 0.750879 0.080869 0.782739
v 0.613425 0.037775 0.880795
v 0.618081 0.071737 0.879304
v 0.471837 0.022277 0.953897
v 0.476672 0.056485 0.952785
v 0.321457 0.001785 0.988326
v 0.326561 0.036258 0.988211
v 0.166955 -0.019468 0.989884
v 0.171997 0.015423 0.989879
v 0.015808 -0.037603 0.973736
v 0.020552 -0.002102 0.973117
v -0.130687 -0.051700 0.946058
v -0.125944 -0.015512 0.944700
v -0.270367 -0.061393 0.913439
v -0.265661 -0.024397 0.911068
v -0.401964 -0.066537 0.870439
v -0.397022 -0.028680 0.868119
v -0.522702 -0.067585 0.819286
v -0.517599 -0.028765 0.816604
v -0.629499 -0.065319 0.764852
v -0.624120 -0.025482 0.762220
v -0.722285 -0.060201 0.700502
v -0.716550 -0.019299 0.698198
v -0.801177 -0.052799 0.620313
v -0.795037 -0.010790 0.618512
v -0.866904 -0.043591 0.519185
v -0.860353 -0.000439 0.517969
v -0.919969 -0.033087 0.394854
v -0.913029 0.011233 0.394029
v -0.955655 -0.022468 0.259375
v -0.948322 0.023035 0.258536
v -0.971949 -0.012500 0.117807
v -0.964230 0.034167 0.116964
v -0.968770 -0.003710 -0.026564
v -0.960680 0.044079 -0.027393
v -0.946345 0.003512 -0.170324
v -0.937901 0.052361 -0.171119
v -0.905203 0.008915 -0.310045
v -0.896430 0.058738 -0.310778
v -0.848065 0.012744 -0.446107
v -0.839290 0.063490 -0.447338
v -0.779794 0.015695 -0.582407
v -0.771028 0.067226 -0.584027
v -0.697801 0.017132 -0.707315
v -0.689012 0.069160 -0.708876
v -0.588935 0.005546 -0.818554
v -0.580560 0.055614 -0.820108
v -0.482911 -0.018891 -0.909491
v -0.474120 0.033132 -0.910960
v -0.351931 -0.051350 -0.978068
v -0.343094 0.000150 -0.979306
v -0.216128 -0.077600 -1.029115
v -0.207235 -0.026917 -1.029787
vt 0.916378 0.289742
vt 0.916378 0.703446
vt 0.897573 0.703446
vt 0.897573 0.289742
vt 0.878768 0.703446
vt 0.878768 0.289742
vt 0.859964 0.703446
vt 0.859964 0.289742
vt 0.841159 0.703446
vt 0.841159 0.289742
vt 0.822354 0.703446
vt 0.822354 0.289742
vt 0.803550 0.703446
vt 0.803550 0.289742
vt 0.784745 0.703446
vt 0.784745 0.289742
vt 0.765940 0.703446
vt 0.765940 0.289742
vt 0.747136 0.703446
vt 0.747136 0.289742
vt 0.728331 0.703446
vt 0.728331 0.289742
vt 0.709526 0.703446
vt 0.709526 0.289742
vt 0.690721 0.703446
vt 0.690721 0.289742
vt 0.671917 0.703446
vt 0.671917 0.289742
vt 0.653112 0.703446
vt 0.653112 0.289742
vt 0.634307 0.703446
vt 0.634307 0.289742
vt 0.615503 0.703446
vt 0.615503 0.289742
vt 0.596698 0.703446
vt 0.596698 0.289742
vt 0.577893 0.703446
vt 0.577893 0.289742
vt 0.559088 0.703446
vt 0.559088 0.289742
vt 0.540284 0.703446
vt 0.540284 0.289742
vt 0.521479 0.703446
vt 0.521479 0.289742
vt 0.502674 0.703446
vt 0.502674 0.289742
vt 0.483869 0.703446
vt 0.483869 0.289742
vt 0.465065 0.703446
vt 0.465065 0.289742
vt 0.446260 0.703446
vt 0.446260 0.289742
vt 0.427455 0.703446
vt 0.427455 0.289742
vt 0.408650 0.703446
vt 0.408650 0.289742
vt 0.389846 0.703446
vt 0.389846 0.289742
vt 0.371041 0.703446
vt 0.371041 0.289742
vt 0.352236 0.703446
vt 0.352236 0.289742
vt 0.333431 0.703446
vt 0.333431 0.289742
vt 0.314627 0.703446
vt 0.314627 0.289742
vt 0.295822 0.703446
vt 0.295822 0.289742
vt 0.277017 0.703446
vt 0.277017 0.289742
vt 0.258213 0.703446
vt 0.258213 0.289742
vt 0.239408 0.703446
vt 0.239408 0.289742
vt 0.220603 0.703446
vt 0.220603 0.289742
vt 0.201798 0.703446
vt 0.201798 0.289742
vt 0.182994 0.703446
vt 0.182994 0.289742
vt 0.164189 0.703446
vt 0.164189 0.289742
vt 0.145384 0.703446
vt 0.145384 0.289742
vt 0.126579 0.703446
vt 0.126579 0.289742
vt 0.565243 0.970362
vt 0.498663 0.975124
vt 0.432084 0.970362
vt 0.366859 0.956173
vt 0.304317 0.932846
vt 0.245731 0.900856
vt 0.192295 0.860854
vt 0.145095 0.813655
vt 0.105093 0.760218
vt 0.073103 0.701633
vt 0.049776 0.639091
vt 0.035587 0.573866
vt 0.030826 0.507286
vt 0.035587 0.440706
vt 0.049776 0.375481
vt 0.073103 0.312939
vt 0.105093 0.254354
vt 0.145095 0.200917
vt 0.192295 0.153718
vt 0.245731 0.113716
vt 0.304317 0.081726
vt 0.366858 0.058399
vt 0.432083 0.044210
vt 0.498663 0.039449
vt 0.565244 0.044211
vt 0.630468 0.058399
vt 0.693010 0.081726
vt 0.751595 0.113716
vt 0.805031 0.153718
vt 0.852231 0.200918
vt 0.892233 0.254354
vt 0.924223 0.312939
vt 0.947550 0.375481
vt 0.961739 0.440706
vt 0.966500 0.507286
vt 0.961739 0.573866
vt 0.947550 0.639091
vt 0.924223 0.701633
vt 0.892233 0.760218
vt 0.852231 0.813654
vt 0.805031 0.860854
vt 0.751595 0.900856
vt 0.693010 0.932846
vt 0.630468 0.956173
vt 0.107775 0.703446
vt 0.107775 0.289742
vt 0.088970 0.703446
vt 0.088970 0.289742
vt 0.498663 0.959189
vt 0.565243 0.954427
vt 0.630468 0.940238
vt 0.693010 0.916911
vt 0.751595 0.884922
vt 0.805031 0.844920
vt 0.852231 0.797720
vt 0.892233 0.744284
vt 0.924223 0.685698
vt 0.947550 0.623157
vt 0.961739 0.557932
vt 0.966501 0.491352
vt 0.961739 0.424771
vt 0.947550 0.359547
vt 0.924223 0.297005
vt 0.892233 0.238420
vt 0.852231 0.184983
vt 0.805031 0.137784
vt 0.751595 0.097782
vt 0.693010 0.065792
vt 0.630468 0.042465
vt 0.565244 0.028276
vt 0.498663 0.023514
vt 0.432083 0.028276
vt 0.366858 0.042465
vt 0.304317 0.065791
vt 0.245731 0.097781
vt 0.192295 0.137783
vt 0.145095 0.184983
vt 0.105093 0.238419
vt 0.073103 0.297005
vt 0.049776 0.359546
vt 0.035588 0.424771
vt 0.030826 0.491352
vt 0.035588 0.557932
vt 0.049776 0.623157
vt 0.073103 0.685699
vt 0.105093 0.744284
vt 0.145095 0.797720
vt 0.192295 0.844920
vt 0.245732 0.884922
vt 0.304317 0.916912
vt 0.366859 0.940239
vt 0.432084 0.954427
vn -0.1364 0.0149 -0.9905
vn 0.0275 -0.0136 -0.9995
vn 0.1911 -0.0414 -0.9807
vn 0.3446 -0.0684 -0.9362
vn 0.4829 -0.0939 -0.8707
vn 0.6103 -0.1159 -0.7836
vn 0.7271 -0.1322 -0.6737
vn 0.8206 -0.1411 -0.5538
vn 0.8829 -0.1427 -0.4473
vn 0.9294 -0.1407 -0.3412
vn 0.9665 -0.1363 -0.2176
vn 0.9894 -0.1281 -0.0689
vn 0.9884 -0.1160 0.0975
vn 0.9546 -0.0994 0.2807
vn 0.8985 -0.0833 0.4310
vn 0.8231 -0.0682 0.5638
vn 0.7111 -0.0537 0.7010
vn 0.5888 -0.0415 0.8072
vn 0.4623 -0.0305 0.8862
vn 0.2284 -0.0157 0.9734
vn 0.0104 0.0002 0.9999
vn -0.1109 0.0242 0.9935
vn -0.1925 0.0525 0.9799
vn -0.2350 0.0797 0.9687
vn -0.3124 0.0995 0.9447
vn -0.3895 0.1107 0.9143
vn -0.4487 0.1196 0.8856
vn -0.5598 0.1271 0.8188
vn -0.6994 0.1349 0.7019
vn -0.8236 0.1422 0.5490
vn -0.9049 0.1489 0.3987
vn -0.9522 0.1562 0.2624
vn -0.9790 0.1621 0.1234
vn -0.9862 0.1648 -0.0123
vn -0.9757 0.1645 -0.1446
vn -0.9482 0.1612 -0.2736
vn -0.9132 0.1520 -0.3780
vn -0.8870 0.1399 -0.4402
vn -0.8302 0.1240 -0.5435
vn -0.7064 0.0974 -0.7011
vn -0.6370 0.0844 -0.7662
vn -0.4519 0.0537 -0.8904
vn -0.0164 0.9998 -0.0135
vn -0.3425 0.0419 -0.9386
vn -0.2838 0.0391 -0.9581
vn 0.0224 -0.9996 0.0199
usemtl Material.001
s off
f 1/1/1 2/2/1 4/3/1 3/4/1
f 3/4/2 4/3/2 6/5/2 5/6/2
f 5/6/3 6/5/3 8/7/3 7/8/3
f 7/8/4 8/7/4 10/9/4 9/10/4
f 9/10/5 10/9/5 12/11/5 11/12/5
f 11/12/6 12/11/6 14/13/6 13/14/6
f 13/14/7 14/13/7 16/15/7 15/16/7
f 15/16/8 16/15/8 18/17/8 17/18/8
f 17/18/9 18/17/9 20/19/9 19/20/9
f 19/20/10 20/19/10 22/21/10 21/22/10
f 21/22/11 22/21/11 24/23/11 23/24/11
f 23/24/12 24/23/12 26/25/12 25/26/12
f 25/26/13 26/25/13 28/27/13 27/28/13
f 27/28/14 28/27/14 30/29/14 29/30/14
f 29/30/15 30/29/15 32/31/15 31/32/15
f 31/32/16 32/31/16 34/33/16 33/34/16
f 33/34/17 34/33/17 36/35/17 35/36/17
f 35/36/18 36/35/18 38/37/18 37/38/18
f 37/38/19 38/37/19 40/39/19 39/40/19
f 39/40/20 40/39/20 42/41/20 41/42/20
f 41/42/21 42/41/21 44/43/21 43/44/21
f 43/44/22 44/43/22 46/45/22 45/46/22
f 45/46/23 46/45/23 48/47/23 47/48/23
f 47/48/24 48/47/24 50/49/24 49/50/24
f 49/50/25 50/49/25 52/51/25 51/52/25
f 51/52/26 52/51/26 54/53/26 53/54/26
f 53/54/27 54/53/27 56/55/27 55/56/27
f 55/56/28 56/55/28 58/57/28 57/58/28
f 57/58/29 58/57/29 60/59/29 59/60/29
f 59/60/30 60/59/30 62/61/30 61/62/30
f 61/62/31 62/61/31 64/63/31 63/64/31
f 63/64/32 64/63/32 66/65/32 65/66/32
f 65/66/33 66/65/33 68/67/33 67/68/33
f 67/68/34 68/67/34 70/69/34 69/70/34
f 69/70/35 70/69/35 72/71/35 71/72/35
f 71/72/36 72/71/36 74/73/36 73/74/36
f 73/74/37 74/73/37 76/75/37 75/76/37
f 75/76/38 76/75/38 78/77/38 77/78/38
f 77/78/39 78/77/39 80/79/39 79/80/39
f 79/80/40 80/79/40 82/81/40 81/82/40
f 81/82/41 82/81/41 84/83/41 83/84/41
f 83/84/42 84/83/42 86/85/42 85/86/42
f 4/87/43 2/88/43 88/89/43 86/90/43 84/91/43 82/92/43 80/93/43 78/94/43 76/95/43 74/96/43 72/97/43 70/98/43 68/99/43 66/100/43 64/101/43 62/102/43 60/103/43 58/104/43 56/105/43 54/106/43 52/107/43 50/108/43 48/109/43 46/110/43 44/111/43 42/112/43 40/113/43 38/114/43 36/115/43 34/116/43 32/117/43 30/118/43 28/119/43 26/120/43 24/121/43 22/122/43 20/123/43 18/124/43 16/125/43 14/126/43 12/127/43 10/128/43 8/129/43 6/130/43
f 85/86/44 86/85/44 88/131/44 87/132/44
f 87/132/45 88/131/45 2/133/45 1/134/45
f 1/135/46 3/136/46 5/137/46 7/138/46 9/139/46 11/140/46 13/141/46 15/142/46 17/143/46 19/144/46 21/145/46 23/146/46 25/147/46 27/148/46 29/149/46 31/150/46 33/151/46 35/152/46 37/153/46 39/154/46 41/155/46 43/156/46 45/157/46 47/158/46 49/159/46 51/160/46 53/161/46 55/162/46 57/163/46 59/164/46 61/165/46 63/166/46 65/167/46 67/168/46 69/169/46 71/170/46 73/171/46 75/172/46 77/173/46 79/174/46 81/175/46 83/176/46 85/177/46 87/178/46
