# Blender v2.92.0 OBJ File: 'tomato_material.blend'
# www.blender.org
mtllib tomato_material.mtl
o Cylinder
v -0.889612 0.000000 -0.156800
v -0.909213 0.000000 0.150689
v -0.872519 0.173555 -0.156800
v -0.891742 0.177379 0.150689
v -0.821895 0.340440 -0.156800
v -0.840003 0.347941 0.150689
v -0.739685 0.494242 -0.156800
v -0.755983 0.505132 0.150689
v -0.629051 0.629051 -0.156800
v -0.642910 0.642911 0.150689
v -0.494242 0.739686 -0.156800
v -0.505131 0.755983 0.150689
v -0.340440 0.821895 -0.156800
v -0.347941 0.840003 0.150689
v -0.173555 0.872519 -0.156800
v -0.177379 0.891742 0.150689
v 0.000000 0.889612 -0.156800
v 0.000000 0.909213 0.150689
v 0.173555 0.872519 -0.156800
v 0.177379 0.891743 0.150689
v 0.340440 0.821895 -0.156800
v 0.347941 0.840003 0.150689
v 0.494242 0.739686 -0.156800
v 0.505132 0.755983 0.150689
v 0.629051 0.629051 -0.156800
v 0.642911 0.642910 0.150689
v 0.739686 0.494242 -0.156800
v 0.755983 0.505131 0.150689
v 0.821895 0.340440 -0.156800
v 0.840003 0.347940 0.150689
v 0.872519 0.173554 -0.156800
v 0.891743 0.177378 0.150689
v 0.889612 -0.000000 -0.156800
v 0.909213 -0.000000 0.150689
v 0.872518 -0.173555 -0.156800
v 0.891742 -0.177379 0.150689
v 0.821894 -0.340440 -0.156800
v 0.840003 -0.347941 0.150689
v 0.739685 -0.494243 -0.156800
v 0.755982 -0.505132 0.150689
v 0.629050 -0.629051 -0.156800
v 0.642910 -0.642911 0.150689
v 0.494242 -0.739686 -0.156800
v 0.505131 -0.755983 0.150689
v 0.340439 -0.821895 -0.156800
v 0.347940 -0.840003 0.150689
v 0.173554 -0.872519 -0.156800
v 0.177378 -0.891743 0.150689
v -0.000001 -0.889612 -0.156800
v -0.000001 -0.909213 0.150689
v -0.173556 -0.872518 -0.156800
v -0.177380 -0.891742 0.150689
v -0.340441 -0.821894 -0.156800
v -0.347942 -0.840003 0.150689
v -0.494243 -0.739685 -0.156800
v -0.505133 -0.755982 0.150689
v -0.629052 -0.629050 -0.156800
v -0.642911 -0.642910 0.150689
v -0.739686 -0.494241 -0.156800
v -0.755984 -0.505131 0.150689
v -0.821895 -0.340439 -0.156800
v -0.840004 -0.347939 0.150689
v -0.872519 -0.173553 -0.156800
v -0.891743 -0.177377 0.150689
v -0.980785 0.195090 0.091745
v -1.000000 0.000000 0.091745
v -0.923880 0.382684 0.091745
v -0.831470 0.555570 0.091745
v -0.707107 0.707107 0.091745
v -0.555570 0.831470 0.091745
v -0.382683 0.923880 0.091745
v -0.195090 0.980785 0.091745
v 0.000000 1.000000 0.091745
v 0.195090 0.980785 0.091745
v 0.382683 0.923880 0.091745
v 0.555570 0.831470 0.091745
v 0.707107 0.707107 0.091745
v 0.831470 0.555570 0.091745
v 0.923880 0.382683 0.091745
v 0.980785 0.195090 0.091745
v 1.000000 -0.000000 0.091745
v 0.980785 -0.195091 0.091745
v 0.923879 -0.382684 0.091745
v 0.831469 -0.555571 0.091745
v 0.707106 -0.707107 0.091745
v 0.555570 -0.831470 0.091745
v 0.382683 -0.923880 0.091745
v 0.195089 -0.980785 0.091745
v -0.000001 -1.000000 0.091745
v -0.195091 -0.980785 0.091745
v -0.382685 -0.923879 0.091745
v -0.555571 -0.831469 0.091745
v -0.707108 -0.707106 0.091745
v -0.831470 -0.555569 0.091745
v -0.923880 -0.382682 0.091745
v -0.980786 -0.195089 0.091745
v -1.000000 0.000000 -0.091745
v -0.980785 0.195090 -0.091745
v -0.923880 0.382684 -0.091745
v -0.831470 0.555570 -0.091745
v -0.707107 0.707107 -0.091745
v -0.555570 0.831470 -0.091745
v -0.382683 0.923880 -0.091745
v -0.195090 0.980785 -0.091745
v -0.000000 1.000000 -0.091745
v 0.195090 0.980785 -0.091745
v 0.382683 0.923880 -0.091745
v 0.555570 0.831470 -0.091745
v 0.707107 0.707107 -0.091745
v 0.831470 0.555570 -0.091745
v 0.923880 0.382683 -0.091745
v 0.980785 0.195090 -0.091745
v 1.000000 -0.000000 -0.091745
v 0.980785 -0.195091 -0.091745
v 0.923879 -0.382684 -0.091745
v 0.831469 -0.555571 -0.091745
v 0.707106 -0.707107 -0.091745
v 0.555570 -0.831470 -0.091745
v 0.382683 -0.923880 -0.091745
v 0.195089 -0.980785 -0.091745
v -0.000001 -1.000000 -0.091745
v -0.195091 -0.980785 -0.091745
v -0.382685 -0.923879 -0.091745
v -0.555571 -0.831469 -0.091745
v -0.707108 -0.707106 -0.091745
v -0.831470 -0.555569 -0.091745
v -0.923880 -0.382682 -0.091745
v -0.980786 -0.195089 -0.091745
v -0.941906 0.187357 0.127872
v -0.960359 0.000000 0.127872
v -0.887256 0.367514 0.127872
v -0.798509 0.533547 0.127872
v -0.679076 0.679076 0.127872
v -0.533547 0.798509 0.127872
v -0.367513 0.887256 0.127872
v -0.187357 0.941906 0.127872
v 0.000000 0.960359 0.127872
v 0.187357 0.941906 0.127872
v 0.367513 0.887256 0.127872
v 0.533547 0.798509 0.127872
v 0.679076 0.679076 0.127872
v 0.798509 0.533547 0.127872
v 0.887256 0.367513 0.127872
v 0.941906 0.187356 0.127872
v 0.960359 -0.000000 0.127872
v 0.941906 -0.187357 0.127872
v 0.887256 -0.367514 0.127872
v 0.798509 -0.533547 0.127872
v 0.679076 -0.679077 0.127872
v 0.533546 -0.798510 0.127872
v 0.367513 -0.887256 0.127872
v 0.187356 -0.941906 0.127872
v -0.000001 -0.960359 0.127872
v -0.187358 -0.941906 0.127872
v -0.367515 -0.887256 0.127872
v -0.533548 -0.798509 0.127872
v -0.679077 -0.679075 0.127872
v -0.798510 -0.533546 0.127872
v -0.887257 -0.367512 0.127872
v -0.941906 -0.187355 0.127872
v -0.943076 0.000000 -0.132671
v -0.924955 0.183985 -0.132671
v -0.871289 0.360900 -0.132671
v -0.784139 0.523945 -0.132671
v -0.666855 0.666856 -0.132671
v -0.523945 0.784139 -0.132671
v -0.360900 0.871289 -0.132671
v -0.183985 0.924955 -0.132671
v -0.000000 0.943076 -0.132671
v 0.183985 0.924955 -0.132671
v 0.360900 0.871289 -0.132671
v 0.523945 0.784139 -0.132671
v 0.666856 0.666855 -0.132671
v 0.784139 0.523945 -0.132671
v 0.871289 0.360899 -0.132671
v 0.924955 0.183985 -0.132671
v 0.943076 -0.000000 -0.132671
v 0.924955 -0.183985 -0.132671
v 0.871289 -0.360900 -0.132671
v 0.784139 -0.523946 -0.132671
v 0.666855 -0.666856 -0.132671
v 0.523944 -0.784140 -0.132671
v 0.360899 -0.871289 -0.132671
v 0.183984 -0.924955 -0.132671
v -0.000001 -0.943076 -0.132671
v -0.183986 -0.924955 -0.132671
v -0.360901 -0.871288 -0.132671
v -0.523946 -0.784138 -0.132671
v -0.666856 -0.666855 -0.132671
v -0.784140 -0.523944 -0.132671
v -0.871289 -0.360898 -0.132671
v -0.924955 -0.183984 -0.132671
vt 0.996308 0.964869
vt 1.000000 1.000000
vt 0.968750 1.000000
vt 0.965058 0.964869
vt 0.937500 1.000000
vt 0.933808 0.964869
vt 0.906250 1.000000
vt 0.902558 0.964869
vt 0.875000 1.000000
vt 0.871308 0.964869
vt 0.843750 1.000000
vt 0.840058 0.964869
vt 0.812500 1.000000
vt 0.808808 0.964869
vt 0.781250 1.000000
vt 0.777558 0.964869
vt 0.750000 1.000000
vt 0.746308 0.964869
vt 0.718750 1.000000
vt 0.715058 0.964869
vt 0.687500 1.000000
vt 0.683808 0.964869
vt 0.656250 1.000000
vt 0.652558 0.964869
vt 0.625000 1.000000
vt 0.621308 0.964869
vt 0.593750 1.000000
vt 0.590058 0.964869
vt 0.562500 1.000000
vt 0.558808 0.964869
vt 0.531250 1.000000
vt 0.527558 0.964869
vt 0.500000 1.000000
vt 0.496308 0.964869
vt 0.468750 1.000000
vt 0.465058 0.964869
vt 0.437500 1.000000
vt 0.433808 0.964869
vt 0.406250 1.000000
vt 0.402558 0.964869
vt 0.375000 1.000000
vt 0.371308 0.964869
vt 0.343750 1.000000
vt 0.340058 0.964869
vt 0.312500 1.000000
vt 0.308808 0.964869
vt 0.281250 1.000000
vt 0.277558 0.964869
vt 0.250000 1.000000
vt 0.246308 0.964869
vt 0.218750 1.000000
vt 0.215058 0.964869
vt 0.187500 1.000000
vt 0.183808 0.964869
vt 0.156250 1.000000
vt 0.152558 0.964869
vt 0.125000 1.000000
vt 0.121308 0.964869
vt 0.093750 1.000000
vt 0.090058 0.964869
vt 0.062500 1.000000
vt 0.058808 0.964869
vt 0.582313 0.895935
vt 0.504722 0.903577
vt 0.427132 0.895935
vt 0.352522 0.873303
vt 0.283762 0.836550
vt 0.223493 0.787088
vt 0.174031 0.726819
vt 0.137278 0.658059
vt 0.114645 0.583450
vt 0.107003 0.505858
vt 0.114645 0.428267
vt 0.137278 0.353658
vt 0.174031 0.284897
vt 0.223492 0.224628
vt 0.283761 0.175167
vt 0.352522 0.138413
vt 0.427131 0.115781
vt 0.504722 0.108139
vt 0.582314 0.115781
vt 0.656923 0.138413
vt 0.725683 0.175167
vt 0.785952 0.224628
vt 0.835414 0.284897
vt 0.872167 0.353658
vt 0.894800 0.428267
vt 0.902442 0.505858
vt 0.894800 0.583449
vt 0.872167 0.658058
vt 0.835414 0.726819
vt 0.785952 0.787088
vt 0.725683 0.836549
vt 0.656923 0.873302
vt 0.031250 1.000000
vt 0.027558 0.964869
vt 0.000000 1.000000
vt -0.003692 0.964869
vt 0.504507 0.890282
vt 0.579152 0.882929
vt 0.650929 0.861156
vt 0.717080 0.825798
vt 0.775061 0.778214
vt 0.822645 0.720233
vt 0.858003 0.654083
vt 0.879776 0.582305
vt 0.887128 0.507660
vt 0.879776 0.433014
vt 0.858003 0.361237
vt 0.822645 0.295087
vt 0.775061 0.237106
vt 0.717080 0.189522
vt 0.650929 0.154164
vt 0.579152 0.132390
vt 0.504506 0.125038
vt 0.429861 0.132390
vt 0.358084 0.154164
vt 0.291933 0.189522
vt 0.233952 0.237106
vt 0.186368 0.295087
vt 0.151010 0.361237
vt 0.129237 0.433014
vt 0.121885 0.507660
vt 0.129237 0.582306
vt 0.151010 0.654083
vt 0.186369 0.720233
vt 0.233953 0.778214
vt 0.291934 0.825798
vt 0.358084 0.861156
vt 0.429861 0.882929
vt 0.504722 0.925950
vt 0.586678 0.917878
vt 0.590061 0.934885
vt 0.504722 0.943290
vt 0.665485 0.893973
vt 0.672121 0.909993
vt 0.738113 0.855152
vt 0.747747 0.869570
vt 0.801772 0.802908
vt 0.814034 0.815170
vt 0.854016 0.739249
vt 0.868434 0.748882
vt 0.892837 0.666620
vt 0.908857 0.673256
vt 0.916743 0.587814
vt 0.933750 0.591197
vt 0.924815 0.505858
vt 0.942155 0.505858
vt 0.916743 0.423902
vt 0.933750 0.420519
vt 0.892837 0.345096
vt 0.908857 0.338460
vt 0.854016 0.272467
vt 0.868434 0.262834
vt 0.801772 0.208808
vt 0.814034 0.196547
vt 0.738113 0.156564
vt 0.747747 0.142146
vt 0.665485 0.117743
vt 0.672121 0.101723
vt 0.586678 0.093838
vt 0.590061 0.076831
vt 0.504722 0.085766
vt 0.504722 0.068426
vt 0.422766 0.093838
vt 0.419383 0.076831
vt 0.343960 0.117744
vt 0.337324 0.101723
vt 0.271331 0.156564
vt 0.261698 0.142146
vt 0.207672 0.208808
vt 0.195411 0.196547
vt 0.155428 0.272467
vt 0.141010 0.262834
vt 0.116608 0.345096
vt 0.100587 0.338460
vt 0.092702 0.423902
vt 0.075695 0.420520
vt 0.084630 0.505858
vt 0.067290 0.505859
vt 0.092702 0.587814
vt 0.075695 0.591197
vt 0.116608 0.666621
vt 0.100588 0.673257
vt 0.155429 0.739249
vt 0.141011 0.748883
vt 0.207673 0.802909
vt 0.195411 0.815170
vt 0.271332 0.855152
vt 0.261699 0.869570
vt 0.343961 0.893973
vt 0.337325 0.909993
vt 0.422767 0.917879
vt 0.419384 0.934886
vt 0.583638 0.905482
vt 0.504507 0.913276
vt 0.504507 0.937759
vt 0.588415 0.929495
vt 0.659729 0.882400
vt 0.669098 0.905020
vt 0.729855 0.844918
vt 0.743457 0.865275
vt 0.791320 0.794474
vt 0.808633 0.811786
vt 0.841764 0.733008
vt 0.862121 0.746610
vt 0.879247 0.662882
vt 0.901867 0.672252
vt 0.902329 0.586791
vt 0.926342 0.591568
vt 0.910123 0.507660
vt 0.934606 0.507660
vt 0.902329 0.428528
vt 0.926342 0.423752
vt 0.879247 0.352437
vt 0.901867 0.343068
vt 0.841764 0.282311
vt 0.862121 0.268709
vt 0.791321 0.220846
vt 0.808633 0.203534
vt 0.729855 0.170402
vt 0.743457 0.150045
vt 0.659729 0.132919
vt 0.669098 0.110300
vt 0.583638 0.109837
vt 0.588415 0.085825
vt 0.504506 0.102043
vt 0.504506 0.077561
vt 0.425375 0.109837
vt 0.420598 0.085825
vt 0.349284 0.132919
vt 0.339915 0.110300
vt 0.279158 0.170402
vt 0.265556 0.150045
vt 0.217692 0.220846
vt 0.200380 0.203534
vt 0.167249 0.282312
vt 0.146892 0.268710
vt 0.129766 0.352437
vt 0.107146 0.343068
vt 0.106684 0.428528
vt 0.082671 0.423752
vt 0.098890 0.507660
vt 0.074407 0.507660
vt 0.106684 0.586792
vt 0.082672 0.591568
vt 0.129766 0.662883
vt 0.107147 0.672252
vt 0.167249 0.733009
vt 0.146892 0.746611
vt 0.217693 0.794474
vt 0.200381 0.811786
vt 0.279159 0.844918
vt 0.265557 0.865275
vt 0.349284 0.882401
vt 0.339915 0.905020
vt 0.425375 0.905482
vt 0.420599 0.929495
vn -0.9952 0.0980 0.0000
vn -0.9569 0.2903 0.0000
vn -0.8819 0.4714 0.0000
vn -0.7730 0.6344 0.0000
vn -0.6344 0.7730 0.0000
vn -0.4714 0.8819 0.0000
vn -0.2903 0.9569 0.0000
vn -0.0980 0.9952 0.0000
vn 0.0980 0.9952 -0.0000
vn 0.2903 0.9569 0.0000
vn 0.4714 0.8819 0.0000
vn 0.6344 0.7730 0.0000
vn 0.7730 0.6344 0.0000
vn 0.8819 0.4714 0.0000
vn 0.9569 0.2903 0.0000
vn 0.9952 0.0980 0.0000
vn 0.9952 -0.0980 0.0000
vn 0.9569 -0.2903 0.0000
vn 0.8819 -0.4714 0.0000
vn 0.7730 -0.6344 0.0000
vn 0.6344 -0.7730 0.0000
vn 0.4714 -0.8819 0.0000
vn 0.2903 -0.9569 0.0000
vn 0.0980 -0.9952 -0.0000
vn -0.0980 -0.9952 0.0000
vn -0.2903 -0.9569 0.0000
vn -0.4714 -0.8819 0.0000
vn -0.6344 -0.7730 0.0000
vn -0.7730 -0.6344 0.0000
vn -0.8819 -0.4714 0.0000
vn 0.0000 -0.0000 1.0000
vn -0.9569 -0.2903 0.0000
vn -0.9952 -0.0980 0.0000
vn -0.0000 0.0000 -1.0000
vn -0.6721 0.0662 0.7375
vn -0.6463 0.1960 0.7375
vn -0.5956 0.3184 0.7375
vn -0.5221 0.4284 0.7375
vn -0.4284 0.5221 0.7375
vn -0.3184 0.5956 0.7375
vn -0.1960 0.6463 0.7375
vn -0.0662 0.6721 0.7375
vn 0.0662 0.6721 0.7375
vn 0.1960 0.6463 0.7375
vn 0.3184 0.5956 0.7375
vn 0.4284 0.5221 0.7375
vn 0.5221 0.4284 0.7375
vn 0.5956 0.3184 0.7375
vn 0.6463 0.1960 0.7375
vn 0.6721 0.0662 0.7375
vn 0.6721 -0.0662 0.7375
vn 0.6463 -0.1960 0.7375
vn 0.5956 -0.3184 0.7375
vn 0.5221 -0.4284 0.7375
vn 0.4284 -0.5221 0.7375
vn 0.3184 -0.5956 0.7375
vn 0.1960 -0.6463 0.7375
vn 0.0662 -0.6721 0.7375
vn -0.0662 -0.6721 0.7375
vn -0.1960 -0.6463 0.7375
vn -0.3184 -0.5956 0.7375
vn -0.4284 -0.5221 0.7375
vn -0.5221 -0.4284 0.7375
vn -0.5956 -0.3184 0.7375
vn -0.6463 -0.1960 0.7375
vn -0.6721 -0.0662 0.7375
vn -0.5828 0.0574 -0.8106
vn -0.5604 0.1700 -0.8106
vn -0.5165 0.2761 -0.8106
vn -0.4527 0.3715 -0.8106
vn -0.3715 0.4527 -0.8106
vn -0.2761 0.5165 -0.8106
vn -0.1700 0.5604 -0.8106
vn -0.0574 0.5828 -0.8106
vn 0.0574 0.5828 -0.8106
vn 0.1700 0.5604 -0.8106
vn 0.2761 0.5165 -0.8106
vn 0.3715 0.4527 -0.8106
vn 0.4527 0.3715 -0.8106
vn 0.5165 0.2761 -0.8106
vn 0.5604 0.1700 -0.8106
vn 0.5828 0.0574 -0.8106
vn 0.5828 -0.0574 -0.8106
vn 0.5604 -0.1700 -0.8106
vn 0.5165 -0.2761 -0.8106
vn 0.4527 -0.3715 -0.8106
vn 0.3715 -0.4527 -0.8106
vn 0.2761 -0.5165 -0.8106
vn 0.1700 -0.5604 -0.8106
vn 0.0574 -0.5828 -0.8106
vn -0.0574 -0.5828 -0.8106
vn -0.1700 -0.5604 -0.8106
vn -0.2761 -0.5165 -0.8106
vn -0.3715 -0.4527 -0.8106
vn -0.4527 -0.3715 -0.8106
vn -0.5165 -0.2761 -0.8106
vn -0.5604 -0.1700 -0.8106
vn -0.5828 -0.0574 -0.8106
vn -0.4071 0.0401 0.9125
vn -0.3914 0.1187 0.9125
vn -0.3608 0.1928 0.9125
vn -0.3162 0.2595 0.9125
vn -0.2595 0.3162 0.9125
vn -0.1928 0.3608 0.9125
vn -0.1187 0.3914 0.9125
vn -0.0401 0.4071 0.9125
vn 0.0401 0.4071 0.9125
vn 0.1187 0.3914 0.9125
vn 0.1928 0.3608 0.9125
vn 0.2595 0.3162 0.9125
vn 0.3162 0.2595 0.9125
vn 0.3608 0.1928 0.9125
vn 0.3914 0.1187 0.9125
vn 0.4071 0.0401 0.9125
vn 0.4071 -0.0401 0.9125
vn 0.3914 -0.1187 0.9125
vn 0.3608 -0.1928 0.9125
vn 0.3162 -0.2595 0.9125
vn 0.2595 -0.3162 0.9125
vn 0.1928 -0.3608 0.9125
vn 0.1187 -0.3914 0.9125
vn 0.0401 -0.4071 0.9125
vn -0.0401 -0.4071 0.9125
vn -0.1187 -0.3914 0.9125
vn -0.1928 -0.3608 0.9125
vn -0.2595 -0.3162 0.9125
vn -0.3162 -0.2595 0.9125
vn -0.3608 -0.1928 0.9125
vn -0.3914 -0.1187 0.9125
vn -0.4071 -0.0401 0.9125
vn -0.4110 0.0405 -0.9107
vn -0.3952 0.1199 -0.9107
vn -0.3642 0.1947 -0.9107
vn -0.3193 0.2620 -0.9107
vn -0.2620 0.3193 -0.9107
vn -0.1947 0.3642 -0.9107
vn -0.1199 0.3952 -0.9107
vn -0.0405 0.4110 -0.9107
vn 0.0405 0.4110 -0.9107
vn 0.1199 0.3952 -0.9107
vn 0.1947 0.3642 -0.9107
vn 0.2620 0.3193 -0.9107
vn 0.3193 0.2620 -0.9107
vn 0.3642 0.1947 -0.9107
vn 0.3952 0.1199 -0.9107
vn 0.4110 0.0405 -0.9107
vn 0.4110 -0.0405 -0.9107
vn 0.3952 -0.1199 -0.9107
vn 0.3642 -0.1947 -0.9107
vn 0.3193 -0.2620 -0.9107
vn 0.2620 -0.3193 -0.9107
vn 0.1947 -0.3642 -0.9107
vn 0.1199 -0.3952 -0.9107
vn 0.0405 -0.4110 -0.9107
vn -0.0405 -0.4110 -0.9107
vn -0.1199 -0.3952 -0.9107
vn -0.1947 -0.3642 -0.9107
vn -0.2620 -0.3193 -0.9107
vn -0.3193 -0.2620 -0.9107
vn -0.3642 -0.1947 -0.9107
vn -0.3952 -0.1199 -0.9107
vn -0.4110 -0.0405 -0.9107
usemtl Material.001
s off
f 97/1/1 66/2/1 65/3/1 98/4/1
f 98/4/2 65/3/2 67/5/2 99/6/2
f 99/6/3 67/5/3 68/7/3 100/8/3
f 100/8/4 68/7/4 69/9/4 101/10/4
f 101/10/5 69/9/5 70/11/5 102/12/5
f 102/12/6 70/11/6 71/13/6 103/14/6
f 103/14/7 71/13/7 72/15/7 104/16/7
f 104/16/8 72/15/8 73/17/8 105/18/8
f 105/18/9 73/17/9 74/19/9 106/20/9
f 106/20/10 74/19/10 75/21/10 107/22/10
f 107/22/11 75/21/11 76/23/11 108/24/11
f 108/24/12 76/23/12 77/25/12 109/26/12
f 109/26/13 77/25/13 78/27/13 110/28/13
f 110/28/14 78/27/14 79/29/14 111/30/14
f 111/30/15 79/29/15 80/31/15 112/32/15
f 112/32/16 80/31/16 81/33/16 113/34/16
f 113/34/17 81/33/17 82/35/17 114/36/17
f 114/36/18 82/35/18 83/37/18 115/38/18
f 115/38/19 83/37/19 84/39/19 116/40/19
f 116/40/20 84/39/20 85/41/20 117/42/20
f 117/42/21 85/41/21 86/43/21 118/44/21
f 118/44/22 86/43/22 87/45/22 119/46/22
f 119/46/23 87/45/23 88/47/23 120/48/23
f 120/48/24 88/47/24 89/49/24 121/50/24
f 121/50/25 89/49/25 90/51/25 122/52/25
f 122/52/26 90/51/26 91/53/26 123/54/26
f 123/54/27 91/53/27 92/55/27 124/56/27
f 124/56/28 92/55/28 93/57/28 125/58/28
f 125/58/29 93/57/29 94/59/29 126/60/29
f 126/60/30 94/59/30 95/61/30 127/62/30
f 4/63/31 2/64/31 64/65/31 62/66/31 60/67/31 58/68/31 56/69/31 54/70/31 52/71/31 50/72/31 48/73/31 46/74/31 44/75/31 42/76/31 40/77/31 38/78/31 36/79/31 34/80/31 32/81/31 30/82/31 28/83/31 26/84/31 24/85/31 22/86/31 20/87/31 18/88/31 16/89/31 14/90/31 12/91/31 10/92/31 8/93/31 6/94/31
f 127/62/32 95/61/32 96/95/32 128/96/32
f 128/96/33 96/95/33 66/97/33 97/98/33
f 1/99/34 3/100/34 5/101/34 7/102/34 9/103/34 11/104/34 13/105/34 15/106/34 17/107/34 19/108/34 21/109/34 23/110/34 25/111/34 27/112/34 29/113/34 31/114/34 33/115/34 35/116/34 37/117/34 39/118/34 41/119/34 43/120/34 45/121/34 47/122/34 49/123/34 51/124/34 53/125/34 55/126/34 57/127/34 59/128/34 61/129/34 63/130/34
f 130/131/35 129/132/35 65/133/35 66/134/35
f 129/132/36 131/135/36 67/136/36 65/133/36
f 131/135/37 132/137/37 68/138/37 67/136/37
f 132/137/38 133/139/38 69/140/38 68/138/38
f 133/139/39 134/141/39 70/142/39 69/140/39
f 134/141/40 135/143/40 71/144/40 70/142/40
f 135/143/41 136/145/41 72/146/41 71/144/41
f 136/145/42 137/147/42 73/148/42 72/146/42
f 137/147/43 138/149/43 74/150/43 73/148/43
f 138/149/44 139/151/44 75/152/44 74/150/44
f 139/151/45 140/153/45 76/154/45 75/152/45
f 140/153/46 141/155/46 77/156/46 76/154/46
f 141/155/47 142/157/47 78/158/47 77/156/47
f 142/157/48 143/159/48 79/160/48 78/158/48
f 143/159/49 144/161/49 80/162/49 79/160/49
f 144/161/50 145/163/50 81/164/50 80/162/50
f 145/163/51 146/165/51 82/166/51 81/164/51
f 146/165/52 147/167/52 83/168/52 82/166/52
f 147/167/53 148/169/53 84/170/53 83/168/53
f 148/169/54 149/171/54 85/172/54 84/170/54
f 149/171/55 150/173/55 86/174/55 85/172/55
f 150/173/56 151/175/56 87/176/56 86/174/56
f 151/175/57 152/177/57 88/178/57 87/176/57
f 152/177/58 153/179/58 89/180/58 88/178/58
f 153/179/59 154/181/59 90/182/59 89/180/59
f 154/181/60 155/183/60 91/184/60 90/182/60
f 155/183/61 156/185/61 92/186/61 91/184/61
f 156/185/62 157/187/62 93/188/62 92/186/62
f 157/187/63 158/189/63 94/190/63 93/188/63
f 158/189/64 159/191/64 95/192/64 94/190/64
f 159/191/65 160/193/65 96/194/65 95/192/65
f 160/193/66 130/131/66 66/134/66 96/194/66
f 162/195/67 161/196/67 97/197/67 98/198/67
f 163/199/68 162/195/68 98/198/68 99/200/68
f 164/201/69 163/199/69 99/200/69 100/202/69
f 165/203/70 164/201/70 100/202/70 101/204/70
f 166/205/71 165/203/71 101/204/71 102/206/71
f 167/207/72 166/205/72 102/206/72 103/208/72
f 168/209/73 167/207/73 103/208/73 104/210/73
f 169/211/74 168/209/74 104/210/74 105/212/74
f 170/213/75 169/211/75 105/212/75 106/214/75
f 171/215/76 170/213/76 106/214/76 107/216/76
f 172/217/77 171/215/77 107/216/77 108/218/77
f 173/219/78 172/217/78 108/218/78 109/220/78
f 174/221/79 173/219/79 109/220/79 110/222/79
f 175/223/80 174/221/80 110/222/80 111/224/80
f 176/225/81 175/223/81 111/224/81 112/226/81
f 177/227/82 176/225/82 112/226/82 113/228/82
f 178/229/83 177/227/83 113/228/83 114/230/83
f 179/231/84 178/229/84 114/230/84 115/232/84
f 180/233/85 179/231/85 115/232/85 116/234/85
f 181/235/86 180/233/86 116/234/86 117/236/86
f 182/237/87 181/235/87 117/236/87 118/238/87
f 183/239/88 182/237/88 118/238/88 119/240/88
f 184/241/89 183/239/89 119/240/89 120/242/89
f 185/243/90 184/241/90 120/242/90 121/244/90
f 186/245/91 185/243/91 121/244/91 122/246/91
f 187/247/92 186/245/92 122/246/92 123/248/92
f 188/249/93 187/247/93 123/248/93 124/250/93
f 189/251/94 188/249/94 124/250/94 125/252/94
f 190/253/95 189/251/95 125/252/95 126/254/95
f 191/255/96 190/253/96 126/254/96 127/256/96
f 192/257/97 191/255/97 127/256/97 128/258/97
f 161/196/98 192/257/98 128/258/98 97/197/98
f 2/64/99 4/63/99 129/132/99 130/131/99
f 4/63/100 6/94/100 131/135/100 129/132/100
f 6/94/101 8/93/101 132/137/101 131/135/101
f 8/93/102 10/92/102 133/139/102 132/137/102
f 10/92/103 12/91/103 134/141/103 133/139/103
f 12/91/104 14/90/104 135/143/104 134/141/104
f 14/90/105 16/89/105 136/145/105 135/143/105
f 16/89/106 18/88/106 137/147/106 136/145/106
f 18/88/107 20/87/107 138/149/107 137/147/107
f 20/87/108 22/86/108 139/151/108 138/149/108
f 22/86/109 24/85/109 140/153/109 139/151/109
f 24/85/110 26/84/110 141/155/110 140/153/110
f 26/84/111 28/83/111 142/157/111 141/155/111
f 28/83/112 30/82/112 143/159/112 142/157/112
f 30/82/113 32/81/113 144/161/113 143/159/113
f 32/81/114 34/80/114 145/163/114 144/161/114
f 34/80/115 36/79/115 146/165/115 145/163/115
f 36/79/116 38/78/116 147/167/116 146/165/116
f 38/78/117 40/77/117 148/169/117 147/167/117
f 40/77/118 42/76/118 149/171/118 148/169/118
f 42/76/119 44/75/119 150/173/119 149/171/119
f 44/75/120 46/74/120 151/175/120 150/173/120
f 46/74/121 48/73/121 152/177/121 151/175/121
f 48/73/122 50/72/122 153/179/122 152/177/122
f 50/72/123 52/71/123 154/181/123 153/179/123
f 52/71/124 54/70/124 155/183/124 154/181/124
f 54/70/125 56/69/125 156/185/125 155/183/125
f 56/69/126 58/68/126 157/187/126 156/185/126
f 58/68/127 60/67/127 158/189/127 157/187/127
f 60/67/128 62/66/128 159/191/128 158/189/128
f 62/66/129 64/65/129 160/193/129 159/191/129
f 64/65/130 2/64/130 130/131/130 160/193/130
f 3/100/131 1/99/131 161/196/131 162/195/131
f 5/101/132 3/100/132 162/195/132 163/199/132
f 7/102/133 5/101/133 163/199/133 164/201/133
f 9/103/134 7/102/134 164/201/134 165/203/134
f 11/104/135 9/103/135 165/203/135 166/205/135
f 13/105/136 11/104/136 166/205/136 167/207/136
f 15/106/137 13/105/137 167/207/137 168/209/137
f 17/107/138 15/106/138 168/209/138 169/211/138
f 19/108/139 17/107/139 169/211/139 170/213/139
f 21/109/140 19/108/140 170/213/140 171/215/140
f 23/110/141 21/109/141 171/215/141 172/217/141
f 25/111/142 23/110/142 172/217/142 173/219/142
f 27/112/143 25/111/143 173/219/143 174/221/143
f 29/113/144 27/112/144 174/221/144 175/223/144
f 31/114/145 29/113/145 175/223/145 176/225/145
f 33/115/146 31/114/146 176/225/146 177/227/146
f 35/116/147 33/115/147 177/227/147 178/229/147
f 37/117/148 35/116/148 178/229/148 179/231/148
f 39/118/149 37/117/149 179/231/149 180/233/149
f 41/119/150 39/118/150 180/233/150 181/235/150
f 43/120/151 41/119/151 181/235/151 182/237/151
f 45/121/152 43/120/152 182/237/152 183/239/152
f 47/122/153 45/121/153 183/239/153 184/241/153
f 49/123/154 47/122/154 184/241/154 185/243/154
f 51/124/155 49/123/155 185/243/155 186/245/155
f 53/125/156 51/124/156 186/245/156 187/247/156
f 55/126/157 53/125/157 187/247/157 188/249/157
f 57/127/158 55/126/158 188/249/158 189/251/158
f 59/128/159 57/127/159 189/251/159 190/253/159
f 61/129/160 59/128/160 190/253/160 191/255/160
f 63/130/161 61/129/161 191/255/161 192/257/161
f 1/99/162 63/130/162 192/257/162 161/196/162
